<?xml version="1.0" encoding="utf-8"?>
<!-- Generator: Adobe Illustrator 23.0.0, SVG Export Plug-In . SVG Version: 6.00 Build 0)  -->
<svg version="1.1" id="图层_1" xmlns="http://www.w3.org/2000/svg" xmlns:xlink="http://www.w3.org/1999/xlink" x="0px" y="0px"
	 viewBox="0 0 700 700" style="enable-background:new 0 0 700 700;" xml:space="preserve">
<style type="text/css">
	.st0{fill:#FFD93E;}
	.st1{fill:#F06529;}
	.st2{fill:#E34C26;}
	.st3{fill:#D5B931;}
	.st4{fill:#61DAFB;}
	.st5{fill:#1758A8;}
	.st6{fill:#3799D6;}
	.st7{fill:none;stroke:#1758A8;stroke-width:5;stroke-miterlimit:10;}
	.st8{fill:none;stroke:#D5B931;stroke-width:5;stroke-miterlimit:10;}
	.st9{fill:none;stroke:#E34C26;stroke-width:5;stroke-miterlimit:10;}
</style>
<g id="XMLID_1_">
	<g>
		<polygon class="st0" points="662.04,518.27 602.04,622.19 602.18,621.83 600.52,621.83 162.04,518.27 661.66,518.27 		"/>
		<polygon class="st1" points="662.04,518.21 661.66,518.27 661.63,518.21 		"/>
		<polygon class="st2" points="661.63,518.21 542.04,518.21 412.48,86.68 		"/>
		<polygon class="st3" points="600.52,621.83 102.25,621.83 162.04,518.27 		"/>
		<polygon class="st1" points="412.48,86.68 542.04,518.21 292.04,85.2 412.04,85.2 411.66,85.25 		"/>
		<path class="st4" d="M351.96,397.21c8.51,0,15.42,6.9,15.42,15.41c0,8.52-6.91,15.42-15.42,15.42c-8.52,0-15.42-6.9-15.42-15.42
			C336.54,404.11,343.44,397.21,351.96,397.21z"/>
		<polygon class="st5" points="291.98,85.23 351.96,189.12 351.72,188.82 41.96,518.21 291.96,85.2 		"/>
		<polygon class="st6" points="351.72,188.82 101.75,621.77 41.96,518.21 		"/>
		<polygon class="st0" points="102.25,621.83 102.05,622.16 102.18,621.83 		"/>
		<polygon class="st6" points="101.75,621.77 101.96,622.13 101.72,621.83 		"/>
	</g>
	<g>
		<path class="st7" d="M334.14,381.78c5.74-0.49,11.7-0.74,17.82-0.74s12.08,0.25,17.82,0.74c10.08,0.84,19.48,2.39,27.81,4.5
			c22.36,5.65,37.1,15.34,37.1,26.34c0,11.01-14.74,20.7-37.1,26.36c-8.33,2.11-17.73,3.65-27.81,4.49
			c-5.74,0.49-11.7,0.74-17.82,0.74s-12.08-0.25-17.82-0.74c-10.09-0.84-19.48-2.39-27.82-4.49c-22.35-5.66-37.09-15.35-37.09-26.36
			c0-11,14.74-20.69,37.1-26.34C314.66,384.17,324.06,382.62,334.14,381.78z"/>
		<path class="st8" d="M369.78,381.78c3.28,4.73,6.48,9.76,9.53,15.05c3.06,5.3,5.82,10.59,8.27,15.8
			c4.32,9.16,7.68,18.08,10.01,26.35c6.29,22.19,5.26,39.79-4.27,45.29s-25.29-2.42-41.36-18.94c-6-6.17-12.04-13.54-17.82-21.86
			c-3.29-4.73-6.48-9.76-9.54-15.05c-3.05-5.29-5.81-10.58-8.26-15.79c-4.32-9.16-7.68-18.08-10.01-26.35
			c-6.29-22.19-5.27-39.8,4.26-45.3c9.53-5.51,25.29,2.41,41.37,18.94C357.95,366.09,364,373.46,369.78,381.78z"/>
		<path class="st9" d="M387.58,412.63c-2.45,5.21-5.21,10.49-8.27,15.79c-3.05,5.29-6.25,10.32-9.53,15.05
			c-5.78,8.32-11.83,15.69-17.82,21.86c-16.08,16.52-31.84,24.44-41.37,18.94s-10.55-23.11-4.27-45.29
			c2.34-8.27,5.7-17.19,10.02-26.35c2.44-5.21,5.2-10.5,8.26-15.8c3.06-5.29,6.25-10.32,9.54-15.05
			c5.78-8.32,11.82-15.69,17.82-21.86c16.07-16.53,31.83-24.45,41.36-18.94c9.53,5.5,10.56,23.11,4.27,45.3
			C395.25,394.55,391.9,403.47,387.58,412.63z"/>
	</g>
</g>
</svg>
